<?xml version="1.0" encoding="UTF-8" standalone="no"?>
<svg
   xmlns:dc="http://purl.org/dc/elements/1.1/"
   xmlns:cc="http://creativecommons.org/ns#"
   xmlns:rdf="http://www.w3.org/1999/02/22-rdf-syntax-ns#"
   xmlns:svg="http://www.w3.org/2000/svg"
   xmlns="http://www.w3.org/2000/svg"
   xmlns:sodipodi="http://sodipodi.sourceforge.net/DTD/sodipodi-0.dtd"
   xmlns:inkscape="http://www.inkscape.org/namespaces/inkscape"
   id="bebdbc02-5f56-4bd5-9ad9-bce5f07a2c3e"
   data-name="Layer 1"
   width="933.44272"
   height="783.89357"
   viewBox="0 0 933.44272 783.89357"
   version="1.1"
   sodipodi:docname="features-2.svg"
   inkscape:version="0.92.4 (5da689c313, 2019-01-14)">
  <metadata
     id="metadata8076">
    <rdf:RDF>
      <cc:Work
         rdf:about="">
        <dc:format>image/svg+xml</dc:format>
        <dc:type
           rdf:resource="http://purl.org/dc/dcmitype/StillImage" />
        <dc:title>lists</dc:title>
      </cc:Work>
    </rdf:RDF>
  </metadata>
  <defs
     id="defs8074" />
  <sodipodi:namedview
     pagecolor="#ffffff"
     bordercolor="#666666"
     borderopacity="1"
     objecttolerance="10"
     gridtolerance="10"
     guidetolerance="10"
     inkscape:pageopacity="0"
     inkscape:pageshadow="2"
     inkscape:window-width="1303"
     inkscape:window-height="815"
     id="namedview8072"
     showgrid="false"
     inkscape:zoom="0.60212257"
     inkscape:cx="408.59367"
     inkscape:cy="391.94678"
     inkscape:window-x="242"
     inkscape:window-y="72"
     inkscape:window-maximized="0"
     inkscape:current-layer="bebdbc02-5f56-4bd5-9ad9-bce5f07a2c3e" />
  <title
     id="title7905">lists</title>
  <rect
     x="63.993904"
     y="52.262165"
     width="314.75412"
     height="161.31149"
     id="rect7911"
     style="fill:#f2f2f2" />
  <rect
     x="562.80853"
     y="48.955334"
     width="314.75412"
     height="161.31149"
     id="rect7915"
     style="fill:#f2f2f2" />
  <rect
     x="63.993904"
     y="259.80316"
     width="314.75412"
     height="161.31149"
     id="rect7917"
     style="fill:#f2f2f2" />
  <rect
     x="562.80853"
     y="256.49634"
     width="314.75412"
     height="161.31149"
     id="rect7919"
     style="fill:#f2f2f2" />
  <rect
     x="63.993904"
     y="467.34418"
     width="314.75412"
     height="161.31149"
     id="rect7921"
     style="fill:#f2f2f2" />
  <circle
     cx="473.79446"
     cy="133.12387"
     r="40.327869"
     id="circle7923"
     style="fill:#f2f2f2" />
  <polygon
     points="36.531,92.988 78.311,45.105 82.017,48.338 36.256,100.783 17.71,76.237 21.634,73.271 "
     id="polygon7927"
     transform="translate(433.46657,51.484533)"
     style="fill:#fdc134" />
  <path
     d="M 936.85986,780.62793 Q 864.22666,770.6054 797.15645,763.41325 l 17.67632,-27.914 c -5.96046,-1.68615 -32.14766,14.29937 -32.14766,14.29937 l 23.19729,-81.02758 c -29.97745,2.94449 -45.21907,85.6786 -45.21907,85.6786 L 727.17072,726.4778 743.3857,757.9255 A 3092.3973,2518.7183 0 0 0 388.93811,739.75663 l 15.12914,-23.89142 c -5.96047,-1.68616 -32.14767,14.29936 -32.14767,14.29936 l 23.19725,-81.02761 c -29.9774,2.94452 -45.21906,85.67864 -45.21906,85.67864 l -33.49257,-27.97187 17.17409,33.30828 a 1991.0235,1621.6632 0 0 0 -203.75698,11.27285 c 15.30257,-37.21858 67.28589,-72.6164 67.28589,-72.6164 -39.69942,9.61685 -60.52395,25.73191 -71.40537,40.75582 A 801.24181,652.60125 0 0 1 172.01455,494.082 c 0,0 -82.057347,145.43823 -71.58697,243.06246 l 1.25234,17.33525 C 32.11378,762.59277 4.7456895,781.65448 4.7456895,781.65448 Z"
     id="path7929"
     inkscape:connector-curvature="0"
     style="fill:#3f3d56;stroke-width:3.4167273" />
  <ellipse
     cx="673.55408"
     cy="355.50586"
     rx="11.45432"
     ry="1.1174901"
     id="ellipse8023"
     style="opacity:0.1" />
  <g
     id="g1772-3-37-0-1-2-5"
     transform="matrix(0.66331478,0.10517552,-0.11508267,1.0404785,-844.35232,-14784.165)"
     style="fill:#00e8e8;fill-opacity:1">
    <path
       d="m 4736.5062,13819.828 c -59.2794,-0.466 -93.8662,35.508 -93.8662,35.508 0,0 34.0161,36.517 93.2955,36.984 31.5678,0.248 62.1303,-18.244 83.8065,-35.59 -21.4004,-17.682 -51.6681,-36.653 -83.2358,-36.902 z m 102.6114,37.055 c 18.2985,16.02 29.3164,30.042 29.3164,30.042 l -17.9532,-0.141 c 0,0 -8.0477,-9.782 -21.3143,-21.87 -24.1315,18.505 -57.1351,36.837 -92.9639,36.554 -68.7644,-0.541 -101.9425,-46.198 -101.9425,-46.198 0,0 33.8928,-45.126 102.6572,-44.585 35.8287,0.282 68.5398,19.131 92.3769,38.013 13.4552,-11.877 21.6559,-21.532 21.6559,-21.532 l 17.9533,0.141 c 0,0 -11.2373,13.848 -29.7858,29.576"
       style="fill:#00e8e8;fill-opacity:1;fill-rule:nonzero;stroke:none;stroke-width:0.0254622"
       id="path1774-8-8-2-7-9-6"
       inkscape:connector-curvature="0" />
  </g>
  <g
     id="g1772-3-37-0-1-2-5-6"
     transform="matrix(-0.82217037,-0.10145006,0.14264353,-1.0036234,2147.0036,14523.479)"
     style="fill:#00e8e8;fill-opacity:1">
    <path
       d="m 4736.5062,13819.828 c -59.2794,-0.466 -93.8662,35.508 -93.8662,35.508 0,0 34.0161,36.517 93.2955,36.984 31.5678,0.248 62.1303,-18.244 83.8065,-35.59 -21.4004,-17.682 -51.6681,-36.653 -83.2358,-36.902 z m 102.6114,37.055 c 18.2985,16.02 29.3164,30.042 29.3164,30.042 l -17.9532,-0.141 c 0,0 -8.0477,-9.782 -21.3143,-21.87 -24.1315,18.505 -57.1351,36.837 -92.9639,36.554 -68.7644,-0.541 -101.9425,-46.198 -101.9425,-46.198 0,0 33.8928,-45.126 102.6572,-44.585 35.8287,0.282 68.5398,19.131 92.3769,38.013 13.4552,-11.877 21.6559,-21.532 21.6559,-21.532 l 17.9533,0.141 c 0,0 -11.2373,13.848 -29.7858,29.576"
       style="fill:#00e8e8;fill-opacity:1;fill-rule:nonzero;stroke:none;stroke-width:0.0254622"
       id="path1774-8-8-2-7-9-6-9"
       inkscape:connector-curvature="0" />
  </g>
  <g
     id="g1772-3-37-0-1-2-5-0"
     transform="matrix(0.67569507,0.11331783,-0.1172306,1.1210286,-1356.6258,-15721.911)"
     style="fill:#00e8e8;fill-opacity:1">
    <path
       d="m 4736.5062,13819.828 c -59.2794,-0.466 -93.8662,35.508 -93.8662,35.508 0,0 34.0161,36.517 93.2955,36.984 31.5678,0.248 62.1303,-18.244 83.8065,-35.59 -21.4004,-17.682 -51.6681,-36.653 -83.2358,-36.902 z m 102.6114,37.055 c 18.2985,16.02 29.3164,30.042 29.3164,30.042 l -17.9532,-0.141 c 0,0 -8.0477,-9.782 -21.3143,-21.87 -24.1315,18.505 -57.1351,36.837 -92.9639,36.554 -68.7644,-0.541 -101.9425,-46.198 -101.9425,-46.198 0,0 33.8928,-45.126 102.6572,-44.585 35.8287,0.282 68.5398,19.131 92.3769,38.013 13.4552,-11.877 21.6559,-21.532 21.6559,-21.532 l 17.9533,0.141 c 0,0 -11.2373,13.848 -29.7858,29.576"
       style="fill:#00e8e8;fill-opacity:1;fill-rule:nonzero;stroke:none;stroke-width:0.0254622"
       id="path1774-8-8-2-7-9-6-6"
       inkscape:connector-curvature="0" />
  </g>
  <g
     id="g1772-3-37-0-1-2-5-9"
     transform="matrix(-0.69734825,0.08965696,0.12098735,0.88695677,2328.0245,-12378.996)"
     style="fill:#00e8e8;fill-opacity:1">
    <path
       d="m 4736.5062,13819.828 c -59.2794,-0.466 -93.8662,35.508 -93.8662,35.508 0,0 34.0161,36.517 93.2955,36.984 31.5678,0.248 62.1303,-18.244 83.8065,-35.59 -21.4004,-17.682 -51.6681,-36.653 -83.2358,-36.902 z m 102.6114,37.055 c 18.2985,16.02 29.3164,30.042 29.3164,30.042 l -17.9532,-0.141 c 0,0 -8.0477,-9.782 -21.3143,-21.87 -24.1315,18.505 -57.1351,36.837 -92.9639,36.554 -68.7644,-0.541 -101.9425,-46.198 -101.9425,-46.198 0,0 33.8928,-45.126 102.6572,-44.585 35.8287,0.282 68.5398,19.131 92.3769,38.013 13.4552,-11.877 21.6559,-21.532 21.6559,-21.532 l 17.9533,0.141 c 0,0 -11.2373,13.848 -29.7858,29.576"
       style="fill:#00e8e8;fill-opacity:1;fill-rule:nonzero;stroke:none;stroke-width:0.0254622"
       id="path1774-8-8-2-7-9-6-8"
       inkscape:connector-curvature="0" />
  </g>
  <rect
     style="fill:#f2f2f2"
     x="563.3161"
     y="467.2142"
     width="314.75412"
     height="161.31149"
     id="rect7921-1" />
  <g
     id="g1772-3-37-0-1-2-5-0-0"
     transform="matrix(-0.69734825,-0.09234973,0.12098735,-0.91359578,1875.2407,13647.325)"
     style="fill:#00e8e8;fill-opacity:1">
    <path
       d="m 4736.5062,13819.828 c -59.2794,-0.466 -93.8662,35.508 -93.8662,35.508 0,0 34.0161,36.517 93.2955,36.984 31.5678,0.248 62.1303,-18.244 83.8065,-35.59 -21.4004,-17.682 -51.6681,-36.653 -83.2358,-36.902 z m 102.6114,37.055 c 18.2985,16.02 29.3164,30.042 29.3164,30.042 l -17.9532,-0.141 c 0,0 -8.0477,-9.782 -21.3143,-21.87 -24.1315,18.505 -57.1351,36.837 -92.9639,36.554 -68.7644,-0.541 -101.9425,-46.198 -101.9425,-46.198 0,0 33.8928,-45.126 102.6572,-44.585 35.8287,0.282 68.5398,19.131 92.3769,38.013 13.4552,-11.877 21.6559,-21.532 21.6559,-21.532 l 17.9533,0.141 c 0,0 -11.2373,13.848 -29.7858,29.576"
       style="fill:#00e8e8;fill-opacity:1;fill-rule:nonzero;stroke:none;stroke-width:0.0254622"
       id="path1774-8-8-2-7-9-6-6-4"
       inkscape:connector-curvature="0" />
  </g>
  <g
     id="g1772-3-37-0-1-2-5-0-3"
     transform="matrix(0.71036788,-0.09234973,-0.12324621,-0.91359578,-952.94348,13645.679)"
     style="fill:#00e8e8;fill-opacity:1">
    <path
       d="m 4736.5062,13819.828 c -59.2794,-0.466 -93.8662,35.508 -93.8662,35.508 0,0 34.0161,36.517 93.2955,36.984 31.5678,0.248 62.1303,-18.244 83.8065,-35.59 -21.4004,-17.682 -51.6681,-36.653 -83.2358,-36.902 z m 102.6114,37.055 c 18.2985,16.02 29.3164,30.042 29.3164,30.042 l -17.9532,-0.141 c 0,0 -8.0477,-9.782 -21.3143,-21.87 -24.1315,18.505 -57.1351,36.837 -92.9639,36.554 -68.7644,-0.541 -101.9425,-46.198 -101.9425,-46.198 0,0 33.8928,-45.126 102.6572,-44.585 35.8287,0.282 68.5398,19.131 92.3769,38.013 13.4552,-11.877 21.6559,-21.532 21.6559,-21.532 l 17.9533,0.141 c 0,0 -11.2373,13.848 -29.7858,29.576"
       style="fill:#00e8e8;fill-opacity:1;fill-rule:nonzero;stroke:none;stroke-width:0.0254622"
       id="path1774-8-8-2-7-9-6-6-2"
       inkscape:connector-curvature="0" />
  </g>
  <circle
     cx="474.30573"
     cy="333.81906"
     r="40.327869"
     id="circle7923-5"
     style="fill:#f2f2f2" />
  <polygon
     points="36.531,92.988 78.311,45.105 82.017,48.338 36.256,100.783 17.71,76.237 21.634,73.271 "
     id="polygon7927-4"
     transform="translate(433.97784,252.17974)"
     style="fill:#fdc134" />
  <circle
     cx="470.98413"
     cy="541.41803"
     r="40.327869"
     id="circle7923-2"
     style="fill:#f2f2f2" />
  <polygon
     points="17.71,76.237 21.634,73.271 36.531,92.988 78.311,45.105 82.017,48.338 36.256,100.783 "
     id="polygon7927-7"
     transform="translate(430.65626,459.77866)"
     style="fill:#fdc134" />
</svg>
